  <svg version="1.0" xmlns="http://www.w3.org/2000/svg"  width="1800.000000pt" height="1800.000000pt" viewBox="0 0 1800.000000 1800.000000"  preserveAspectRatio="xMidYMid meet"> <g transform="translate(0.000000,1800.000000) scale(0.100000,-0.100000)" fill="#000000" stroke="none"> <path d="M12293 12523 c-42 -8 -40 -71 6 -138 13 -18 21 -46 21 -70 0 -27 9 -53 26 -79 15 -22 30 -53 35 -70 4 -17 12 -44 18 -61 39 -111 61 -244 61 -372 0 -135 -19 -192 -89 -266 -51 -55 -119 -102 -167 -115 -91 -26 -254 -6 -318 40 -21 15 -52 28 -68 28 -32 0 -95 29 -145 66 -17 13 -34 24 -37 24 -15 0 -151 102 -208 156 -69 67 -102 79 -148 54 -37 -20 -43 -47 -20 -85 11 -18 25 -35 29 -37 8 -3 110 -96 314 -288 115 -108 354 -430 401 -540 11 -25 30 -56 43 -70 31 -35 150 -272 169 -340 9 -30 22 -62 28 -70 16 -19 56 -123 76 -195 5 -16 20 -61 33 -100 56 -157 51 -179 -57 -288 -44 -45 -103 -100 -131 -122 -27 -22 -52 -42 -55 -46 -11 -12 -111 -69 -121 -69 -6 0 -41 -20 -78 -44 -36 -24 -77 -46 -91 -49 -14 -4 -43 -22 -65 -40 -48 -41 -178 -107 -211 -107 -14 0 -41 -11 -62 -24 -51 -32 -123 -66 -140 -66 -8 0 -28 -6 -45 -14 -18 -8 -63 -22 -102 -31 -38 -10 -79 -22 -90 -28 -18 -11 -37 -16 -145 -45 -19 -5 -69 -25 -111 -45 -42 -21 -82 -37 -90 -37 -8 0 -40 -16 -72 -35 -32 -19 -70 -35 -85 -35 -32 0 -396 -181 -432 -215 -14 -13 -54 -37 -90 -54 -36 -17 -81 -44 -100 -62 -19 -17 -55 -40 -80 -51 -25 -11 -67 -37 -95 -57 -27 -21 -69 -50 -92 -64 -88 -56 -285 -232 -495 -443 -120 -121 -230 -235 -245 -255 -15 -20 -44 -56 -64 -80 -69 -83 -252 -364 -283 -435 -17 -38 -43 -85 -59 -103 -15 -18 -27 -42 -27 -53 0 -11 -13 -36 -30 -55 -17 -19 -30 -45 -30 -60 0 -14 -18 -59 -40 -99 -22 -40 -40 -81 -40 -91 0 -10 -7 -29 -14 -43 -30 -52 -56 -113 -56 -129 0 -9 -4 -21 -8 -26 -13 -15 -63 -177 -96 -310 -8 -33 -20 -80 -27 -105 -12 -46 -25 -124 -35 -218 -7 -56 13 -229 27 -248 21 -27 414 -98 619 -111 332 -21 658 -3 935 52 250 49 237 46 444 114 107 36 213 78 254 101 38 22 79 40 92 40 31 0 263 118 300 153 16 15 35 27 42 27 20 0 66 27 196 115 65 44 129 87 142 95 89 58 528 486 640 624 22 27 45 54 50 60 28 30 175 259 175 273 0 9 17 39 39 67 21 28 42 62 46 76 4 14 18 36 30 50 13 14 26 44 30 67 3 23 13 47 21 54 8 6 14 15 14 20 0 4 16 35 36 69 20 33 41 81 45 106 5 25 18 57 29 71 11 14 20 35 20 47 0 11 10 37 21 55 21 34 59 142 59 166 0 7 7 26 15 41 8 16 15 39 15 52 0 13 6 44 14 70 8 26 21 83 31 127 9 44 21 98 26 120 25 101 33 250 34 600 0 355 -10 526 -33 572 -21 40 -31 111 -22 144 6 20 40 64 83 109 101 102 256 316 257 352 0 7 7 22 15 32 8 11 15 26 15 33 0 8 13 28 30 46 18 19 30 43 30 59 0 15 11 44 25 64 14 20 25 44 25 54 0 9 13 43 29 76 16 32 34 82 40 109 5 28 14 68 20 90 27 105 33 188 28 390 -3 116 -10 237 -15 270 -18 120 -76 296 -109 336 -8 9 -15 30 -17 47 -5 37 -20 66 -58 112 -15 19 -28 42 -28 50 0 41 -111 183 -262 336 -214 215 -264 247 -365 227z"/> <path d="M8565 12500 c-77 -4 -153 -13 -168 -19 -16 -6 -47 -11 -69 -11 -23 0 -67 -6 -97 -14 -31 -8 -83 -19 -116 -26 -131 -24 -203 -43 -273 -71 -13 -5 -32 -9 -44 -9 -11 0 -40 -13 -65 -30 -28 -19 -57 -30 -79 -30 -20 0 -63 -15 -103 -35 -37 -19 -75 -35 -85 -35 -15 0 -119 -46 -156 -70 -8 -5 -44 -23 -80 -40 -36 -17 -74 -40 -86 -51 -11 -10 -47 -32 -81 -48 -33 -16 -109 -62 -169 -102 -291 -194 -506 -387 -730 -655 -23 -27 -63 -74 -89 -104 -65 -76 -195 -275 -206 -315 -5 -17 -18 -40 -29 -50 -12 -10 -29 -39 -40 -63 -11 -24 -31 -57 -45 -74 -14 -16 -25 -39 -25 -51 0 -23 -1 -24 -73 -158 -26 -48 -47 -98 -47 -112 0 -13 -9 -36 -20 -50 -11 -14 -20 -35 -20 -46 0 -24 -34 -96 -50 -106 -5 -3 -10 -16 -10 -28 0 -12 -6 -39 -14 -62 -8 -22 -22 -67 -31 -100 -9 -33 -23 -80 -30 -105 -26 -89 -69 -327 -82 -450 -10 -98 -10 -680 1 -790 7 -82 21 -145 50 -239 22 -67 1 -111 -101 -212 -90 -90 -215 -267 -254 -359 -12 -30 -35 -71 -51 -91 -15 -20 -28 -48 -28 -62 0 -13 -7 -30 -15 -37 -8 -7 -18 -30 -21 -51 -4 -20 -16 -52 -27 -71 -23 -37 -57 -132 -57 -163 0 -11 -8 -40 -17 -65 -15 -39 -17 -87 -18 -340 0 -277 1 -301 24 -393 13 -53 27 -100 32 -103 5 -3 9 -14 9 -25 0 -23 36 -105 49 -114 5 -3 12 -20 16 -38 11 -55 27 -91 55 -122 15 -16 32 -45 39 -64 24 -72 124 -199 274 -347 84 -83 175 -166 202 -185 43 -29 57 -33 103 -31 30 1 58 4 63 8 16 10 9 78 -11 109 -11 16 -25 55 -31 85 -6 30 -23 74 -36 98 -14 23 -29 57 -33 75 -5 18 -13 46 -19 62 -40 117 -46 162 -46 331 0 151 2 175 20 210 23 45 126 151 170 176 49 27 122 35 224 25 77 -8 104 -15 141 -38 26 -16 58 -29 72 -29 53 0 284 -147 396 -252 80 -75 109 -84 156 -47 30 24 33 52 9 83 -10 12 -106 103 -213 202 -125 117 -225 219 -280 288 -87 110 -240 331 -240 348 0 15 -31 71 -61 108 -38 49 -146 266 -158 319 -5 24 -18 56 -29 70 -10 14 -27 51 -37 81 -9 30 -23 71 -30 90 -7 19 -18 51 -24 70 -7 19 -16 49 -20 65 -4 17 -13 40 -19 52 -7 12 -12 48 -12 81 l0 59 103 101 c131 130 268 232 311 232 8 0 28 12 44 28 29 28 92 62 116 62 7 0 30 16 52 35 46 41 164 100 215 108 19 3 56 19 81 36 25 17 49 31 53 31 4 0 21 6 38 14 52 22 170 56 195 56 22 0 51 13 82 36 8 7 33 14 55 17 49 5 90 20 181 63 39 19 79 34 88 34 18 0 24 3 111 54 33 19 82 40 110 47 57 15 357 162 377 186 7 9 40 29 73 45 87 43 102 52 128 80 13 14 40 31 59 37 20 7 66 34 102 62 36 27 68 49 71 49 7 0 134 96 205 154 75 62 498 486 559 560 146 179 314 425 351 516 13 30 36 72 51 92 16 20 29 44 29 53 0 10 14 34 30 55 17 21 34 58 39 83 4 25 23 69 40 98 18 29 35 68 39 88 3 19 15 49 27 67 21 31 108 286 139 409 30 117 46 192 46 212 0 12 7 50 16 84 11 45 14 83 10 129 -10 99 -28 170 -45 179 -9 4 -52 15 -96 25 -44 9 -100 22 -125 28 -25 6 -76 14 -115 18 -38 5 -97 13 -130 19 -80 14 -545 21 -720 11z"/> </g> </svg> 