  <svg version="1.0" xmlns="http://www.w3.org/2000/svg"  width="600.000000pt" height="600.000000pt" viewBox="0 0 600.000000 600.000000"  preserveAspectRatio="xMidYMid meet"> <g transform="translate(0.000000,600.000000) scale(0.066667,-0.066667)" fill="#000000" stroke="none"> <path d="M6160 6273 c-33 -7 -28 -56 18 -157 178 -392 -128 -597 -433 -290 -57 58 -100 68 -116 29 -7 -19 21 -54 104 -132 221 -207 462 -622 462 -797 0 -37 -112 -146 -187 -181 -25 -12 -66 -34 -90 -50 -25 -16 -69 -41 -98 -54 -29 -14 -69 -33 -90 -43 -21 -11 -86 -33 -145 -51 -181 -54 -428 -168 -627 -291 -447 -274 -860 -909 -868 -1335 -3 -121 -3 -121 161 -148 311 -51 722 -4 977 113 121 55 182 86 209 103 392 248 563 451 769 911 90 202 141 755 84 911 -18 47 -15 52 52 131 322 378 320 871 -3 1206 -116 120 -138 135 -179 125z m-205 -2042 c0 -495 -576 -1039 -1190 -1125 -306 -42 -347 -10 -252 200 173 381 556 687 1107 885 83 30 188 70 232 90 98 43 103 41 103 -50z"/> <path d="M4320 6261 c-483 -54 -837 -219 -1147 -538 -132 -135 -278 -338 -308 -428 -4 -12 -19 -43 -32 -67 -146 -269 -208 -796 -125 -1061 6 -16 -18 -54 -65 -107 -271 -298 -314 -738 -104 -1063 50 -77 236 -267 261 -267 61 1 60 44 -3 205 -146 368 127 532 432 261 57 -51 79 -62 109 -55 55 14 48 26 -81 146 -220 205 -467 625 -467 792 0 83 467 376 599 376 16 0 33 6 37 13 5 7 29 17 54 22 25 5 81 25 124 45 43 20 124 57 179 82 352 160 726 508 907 843 174 324 269 714 181 749 -78 33 -430 65 -551 52z m176 -432 c-40 -360 -503 -796 -1068 -1006 -83 -31 -206 -79 -274 -107 -69 -28 -128 -51 -132 -51 -17 0 -4 209 17 269 198 569 733 953 1339 960 l126 1 -8 -66z"/> </g> </svg> 